<svg width="24" height="24" viewBox="0 0 24 24" fill="none" xmlns="http://www.w3.org/2000/svg">
  <!-- Capsule shadow -->
  <rect x="6.5" y="4.5" width="11" height="15" rx="5.5" fill="currentColor" opacity="0.1" transform="rotate(-30 12 12)"/>
  <!-- Capsule main body -->
  <rect x="7" y="5" width="10" height="14" rx="5" fill="currentColor" stroke="#1a1a1a" stroke-width="1.2" transform="rotate(-30 12 12)"/>
  <!-- Capsule dividing line -->
  <line x1="6" y1="12" x2="18" y2="12" stroke="#1a1a1a" stroke-width="1.5" opacity="0.5"/>
  <!-- Top half shine -->
  <ellipse cx="12" cy="8" rx="4" ry="2.5" fill="white" opacity="0.4" transform="rotate(-30 12 8)"/>
  <!-- Bottom half darker tone -->
  <path d="M7 12 L17 12 L17 17 Q17 20 12 20 Q7 20 7 17 Z" fill="#1a1a1a" opacity="0.15" transform="rotate(-30 12 12)"/>
  <!-- Gelatin texture lines -->
  <line x1="10" y1="8" x2="10" y2="10" stroke="white" stroke-width="0.5" opacity="0.3" transform="rotate(-30 12 12)"/>
  <line x1="14" y1="14" x2="14" y2="16" stroke="white" stroke-width="0.5" opacity="0.3" transform="rotate(-30 12 12)"/>
  <!-- Outer edge -->
  <rect x="7" y="5" width="10" height="14" rx="5" fill="none" stroke="#1a1a1a" stroke-width="1" transform="rotate(-30 12 12)"/>
</svg>