<svg width="24" height="24" viewBox="0 0 24 24" fill="none" xmlns="http://www.w3.org/2000/svg">
  <!-- Capsule shadow -->
  <ellipse cx="12" cy="13" rx="6" ry="9" fill="#E5E7EB" opacity="0.5" transform="rotate(-30 12 12)"/>
  <!-- Capsule bottom half (darker) -->
  <path d="M12 12 L8 16 Q6 18 8 20 L16 20 Q18 18 16 16 L12 12 Z" fill="#EF4444" stroke="#1F2937" stroke-width="1.5" transform="rotate(-30 12 12)"/>
  <!-- Capsule top half (lighter) -->
  <path d="M12 12 L8 8 Q6 6 8 4 L16 4 Q18 6 16 8 L12 12 Z" fill="#FCA5A5" stroke="#1F2937" stroke-width="1.5" transform="rotate(-30 12 12)"/>
  <!-- Capsule dividing line -->
  <line x1="6" y1="12" x2="18" y2="12" stroke="#1F2937" stroke-width="1.8" opacity="0.8"/>
  <!-- Top half shine -->
  <ellipse cx="10" cy="8" rx="3" ry="2" fill="white" opacity="0.5" transform="rotate(-30 10 8)"/>
  <!-- Gelatin texture -->
  <path d="M8 8 L9 9 M15 15 L16 16" stroke="white" stroke-width="1" opacity="0.4" stroke-linecap="round" transform="rotate(-30 12 12)"/>
</svg>