<svg width="24" height="24" viewBox="0 0 24 24" fill="none" xmlns="http://www.w3.org/2000/svg">
  <!-- Jar shadow -->
  <ellipse cx="12" cy="20" rx="6" ry="1" fill="#1a1a1a" opacity="0.2"/>
  <!-- Jar base -->
  <path d="M7 11 L7 18 Q7 19.5 12 19.5 Q17 19.5 17 18 L17 11 Z" fill="currentColor" stroke="#1a1a1a" stroke-width="1.2"/>
  <!-- Jar rim -->
  <ellipse cx="12" cy="11" rx="5" ry="1.5" fill="currentColor" stroke="#1a1a1a" stroke-width="1"/>
  <ellipse cx="12" cy="11" rx="4" ry="1" fill="white" opacity="0.2"/>
  <!-- Lid -->
  <ellipse cx="12" cy="9" rx="5.5" ry="2" fill="currentColor" stroke="#1a1a1a" stroke-width="1.2"/>
  <ellipse cx="12" cy="8.5" rx="4.5" ry="1.5" fill="white" opacity="0.3"/>
  <!-- Lid grip lines -->
  <line x1="7" y1="8.5" x2="8" y2="8.5" stroke="#1a1a1a" stroke-width="0.8"/>
  <line x1="16" y1="8.5" x2="17" y2="8.5" stroke="#1a1a1a" stroke-width="0.8"/>
  <line x1="7.5" y1="9.5" x2="8.5" y2="9.5" stroke="#1a1a1a" stroke-width="0.8"/>
  <line x1="15.5" y1="9.5" x2="16.5" y2="9.5" stroke="#1a1a1a" stroke-width="0.8"/>
  <!-- Label on jar -->
  <rect x="8.5" y="13" width="7" height="4" rx="0.5" fill="white" opacity="0.8" stroke="#1a1a1a" stroke-width="0.5"/>
  <line x1="9" y1="14" x2="15" y2="14" stroke="#1a1a1a" stroke-width="0.6"/>
  <line x1="9" y1="15" x2="14" y2="15" stroke="#1a1a1a" stroke-width="0.5" opacity="0.6"/>
  <line x1="9" y1="16" x2="13.5" y2="16" stroke="#1a1a1a" stroke-width="0.5" opacity="0.6"/>
  <!-- Jar shine -->
  <path d="M8 12 Q8.5 11.5 9 12 L9 17 Q8.5 17 8 17 Z" fill="white" opacity="0.4"/>
  <!-- Cream texture visible through glass -->
  <ellipse cx="12" cy="15" rx="3.5" ry="2" fill="currentColor" opacity="0.6"/>
  <ellipse cx="12" cy="14.5" rx="3" ry="1.5" fill="white" opacity="0.2"/>
</svg>