<svg width="24" height="24" viewBox="0 0 24 24" fill="none" xmlns="http://www.w3.org/2000/svg">
  <!-- Jar base -->
  <path d="M7 11 L7 18 Q7 19.5 12 19.5 Q17 19.5 17 18 L17 11 Z" fill="#FEF3C7" stroke="#1F2937" stroke-width="1.5"/>
  <!-- Jar rim -->
  <ellipse cx="12" cy="11" rx="5" ry="1.8" fill="#FDE68A" stroke="#1F2937" stroke-width="1.2"/>
  <!-- Lid -->
  <ellipse cx="12" cy="9" rx="5.5" ry="2.2" fill="#FCD34D" stroke="#1F2937" stroke-width="1.5"/>
  <ellipse cx="12" cy="8.5" rx="4.5" ry="1.6" fill="white" opacity="0.4"/>
  <!-- Lid grip lines -->
  <line x1="7" y1="8.5" x2="8.5" y2="8.5" stroke="#1F2937" stroke-width="1"/>
  <line x1="15.5" y1="8.5" x2="17" y2="8.5" stroke="#1F2937" stroke-width="1"/>
  <line x1="7.5" y1="9.5" x2="9" y2="9.5" stroke="#1F2937" stroke-width="1"/>
  <line x1="15" y1="9.5" x2="16.5" y2="9.5" stroke="#1F2937" stroke-width="1"/>
  <!-- Label on jar -->
  <rect x="8.5" y="13" width="7" height="4" rx="0.6" fill="white" opacity="0.95" stroke="#374151" stroke-width="0.8"/>
  <line x1="9" y1="14" x2="15" y2="14" stroke="#1F2937" stroke-width="0.8"/>
  <line x1="9" y1="15" x2="14" y2="15" stroke="#6B7280" stroke-width="0.6"/>
  <line x1="9" y1="16" x2="13.5" y2="16" stroke="#9CA3AF" stroke-width="0.6"/>
  <!-- Jar shine -->
  <path d="M8 12 Q8.5 11.5 9.5 12 L9.5 17 Q8.5 17 8 17 Z" fill="white" opacity="0.5"/>
  <!-- Cream texture -->
  <ellipse cx="12" cy="15" rx="3.8" ry="2.2" fill="#FFFBEB" opacity="0.8"/>
</svg>