<svg width="24" height="24" viewBox="0 0 24 24" fill="none" xmlns="http://www.w3.org/2000/svg">
  <!-- Tube cap -->
  <rect x="10" y="5" width="4" height="2.5" rx="1" fill="#3B82F6" stroke="#1F2937" stroke-width="1.2"/>
  <ellipse cx="12" cy="5" rx="1.5" ry="0.8" fill="white" opacity="0.4"/>
  <!-- Flip-top -->
  <path d="M10.5 7 L11 7.5 L13 7.5 L13.5 7 Z" fill="#60A5FA" stroke="#1F2937" stroke-width="1"/>
  <!-- Main tube body -->
  <rect x="7" y="8" width="10" height="12" rx="1.8" fill="#DBEAFE" stroke="#1F2937" stroke-width="1.5"/>
  <!-- Squeeze texture -->
  <path d="M7 13 Q8 12.5 9 13 Q10 13.5 11 13 Q12 12.5 13 13 Q14 13.5 15 13 Q16 12.5 17 13" fill="none" stroke="#6B7280" stroke-width="0.8" opacity="0.5"/>
  <path d="M7 15 Q8 14.5 9 15 Q10 15.5 11 15 Q12 14.5 13 15 Q14 15.5 15 15 Q16 14.5 17 15" fill="none" stroke="#6B7280" stroke-width="0.8" opacity="0.5"/>
  <path d="M7 17 Q8 16.5 9 17 Q10 17.5 11 17 Q12 16.5 13 17 Q14 17.5 15 17 Q16 16.5 17 17" fill="none" stroke="#6B7280" stroke-width="0.8" opacity="0.5"/>
  <!-- Label -->
  <rect x="8.5" y="9.5" width="7" height="3.5" rx="0.6" fill="white" opacity="0.95" stroke="#374151" stroke-width="0.8"/>
  <line x1="9" y1="10.5" x2="15" y2="10.5" stroke="#1F2937" stroke-width="0.8"/>
  <line x1="9" y1="11.5" x2="14" y2="11.5" stroke="#6B7280" stroke-width="0.6"/>
  <line x1="9" y1="12.3" x2="13" y2="12.3" stroke="#9CA3AF" stroke-width="0.6"/>
  <!-- Gel transparency -->
  <rect x="8" y="9" width="2" height="9" fill="white" opacity="0.5" rx="0.8"/>
  <!-- Tube crimp -->
  <path d="M7 18 L9 19 L11 18 L13 19 L15 18 L17 19 L17 19.5 L7 19.5 Z" fill="#6B7280" opacity="0.3" stroke="#1F2937" stroke-width="0.8"/>
  <line x1="8" y1="19.2" x2="16" y2="19.2" stroke="#1F2937" stroke-width="1"/>
</svg>