<svg width="24" height="24" viewBox="0 0 24 24" fill="none" xmlns="http://www.w3.org/2000/svg">
  <!-- Syringe barrel -->
  <rect x="8" y="8" width="4" height="10" rx="0.8" fill="#F3F4F6" stroke="#1F2937" stroke-width="1.5"/>
  <!-- Plunger -->
  <rect x="8.5" y="6" width="3" height="3" rx="0.5" fill="#60A5FA" stroke="#1F2937" stroke-width="1.2"/>
  <rect x="9.5" y="7" width="1" height="8" fill="#93C5FD" opacity="0.6"/>
  <!-- Measurement markings -->
  <line x1="8" y1="10" x2="7" y2="10" stroke="#1F2937" stroke-width="1"/>
  <line x1="8" y1="12" x2="7" y2="12" stroke="#1F2937" stroke-width="1"/>
  <line x1="8" y1="14" x2="7" y2="14" stroke="#1F2937" stroke-width="1"/>
  <line x1="8" y1="16" x2="7" y2="16" stroke="#1F2937" stroke-width="1"/>
  <!-- Numbers -->
  <text x="5" y="10.8" font-size="2.5" fill="#1F2937" font-weight="bold">1</text>
  <text x="5" y="12.8" font-size="2.5" fill="#1F2937" font-weight="bold">2</text>
  <text x="5" y="14.8" font-size="2.5" fill="#1F2937" font-weight="bold">3</text>
  <!-- Needle base -->
  <path d="M9 18 L10 19 L11 18 Z" fill="#9CA3AF" stroke="#1F2937" stroke-width="1"/>
  <!-- Needle -->
  <rect x="9.6" y="18" width="0.8" height="3.5" fill="#C0C0C0" stroke="#1F2937" stroke-width="0.8"/>
  <path d="M10 21.5 L9.8 22 L10.2 22 Z" fill="#6B7280" stroke="#1F2937" stroke-width="0.5"/>
  <!-- Liquid inside -->
  <rect x="8.5" y="13" width="3" height="4" fill="#DBEAFE" opacity="0.8"/>
  <!-- Shine effect -->
  <rect x="8.5" y="9" width="1" height="8" fill="white" opacity="0.6" rx="0.4"/>
  <!-- Finger grips -->
  <circle cx="7.5" cy="17" r="1" fill="#60A5FA" stroke="#1F2937" stroke-width="0.8"/>
  <circle cx="12.5" cy="17" r="1" fill="#60A5FA" stroke="#1F2937" stroke-width="0.8"/>
</svg>