<svg width="24" height="24" viewBox="0 0 24 24" fill="none" xmlns="http://www.w3.org/2000/svg">
  <!-- Pump dispenser top -->
  <rect x="10.5" y="4" width="3" height="2" rx="0.6" fill="#60A5FA" stroke="#1F2937" stroke-width="1.2"/>
  <ellipse cx="12" cy="4" rx="1.2" ry="0.6" fill="white" opacity="0.4"/>
  <!-- Pump nozzle -->
  <rect x="11.5" y="5.5" width="1" height="1.5" rx="0.4" fill="#D1D5DB" stroke="#1F2937" stroke-width="0.8"/>
  <ellipse cx="12" cy="7" rx="0.7" ry="0.4" fill="#6B7280" opacity="0.6"/>
  <!-- Bottle neck -->
  <rect x="10" y="9" width="4" height="2" rx="0.6" fill="#93C5FD" stroke="#1F2937" stroke-width="1.2"/>
  <!-- Main bottle body -->
  <path d="M8 11 L8 19 Q8 20 12 20 Q16 20 16 19 L16 11 Z" fill="#DBEAFE" stroke="#1F2937" stroke-width="1.5"/>
  <!-- Lotion level -->
  <path d="M8.5 14 L8.5 18.5 Q8.5 19.3 12 19.3 Q15.5 19.3 15.5 18.5 L15.5 14 Z" fill="#FEF3C7" opacity="0.8"/>
  <ellipse cx="12" cy="14" rx="3.5" ry="1.2" fill="white" opacity="0.3"/>
  <!-- Label -->
  <rect x="9" y="12.5" width="6" height="3.5" rx="0.6" fill="white" opacity="0.95" stroke="#374151" stroke-width="0.8"/>
  <line x1="9.5" y1="13.5" x2="14.5" y2="13.5" stroke="#1F2937" stroke-width="0.8"/>
  <line x1="9.5" y1="14.5" x2="14" y2="14.5" stroke="#6B7280" stroke-width="0.6"/>
  <line x1="9.5" y1="15.3" x2="13" y2="15.3" stroke="#9CA3AF" stroke-width="0.6"/>
  <!-- Bottle shine -->
  <path d="M9 12 Q9.5 11.5 10.5 12 L10.5 18 Q9.5 18 9 18 Z" fill="white" opacity="0.5"/>
  <!-- Base ridge -->
  <ellipse cx="12" cy="19.5" rx="4" ry="1" fill="none" stroke="#1F2937" stroke-width="1"/>
</svg>