<svg width="24" height="24" viewBox="0 0 24 24" fill="none" xmlns="http://www.w3.org/2000/svg">
  <!-- Tube shadow -->
  <rect x="7.5" y="8.5" width="9" height="12" rx="1" fill="#1a1a1a" opacity="0.1"/>
  <!-- Tube cap -->
  <rect x="9" y="6" width="6" height="3" rx="1" fill="currentColor" stroke="#1a1a1a" stroke-width="1.2"/>
  <rect x="9.5" y="6.5" width="5" height="0.5" fill="#1a1a1a" opacity="0.2"/>
  <rect x="9.5" y="7.5" width="5" height="0.5" fill="#1a1a1a" opacity="0.2"/>
  <!-- Tube neck -->
  <rect x="10" y="8.5" width="4" height="1.5" fill="currentColor" stroke="#1a1a1a" stroke-width="0.8"/>
  <!-- Main tube body -->
  <rect x="7" y="10" width="10" height="10" rx="1.5" fill="currentColor" stroke="#1a1a1a" stroke-width="1.2"/>
  <!-- Tube crimp/fold at bottom -->
  <path d="M7 17 L9 18 L11 17 L13 18 L15 17 L17 18 L17 19 L7 19 Z" fill="#1a1a1a" opacity="0.15" stroke="#1a1a1a" stroke-width="0.5"/>
  <!-- Label -->
  <rect x="8" y="11.5" width="8" height="4" rx="0.5" fill="white" opacity="0.8" stroke="#1a1a1a" stroke-width="0.5"/>
  <line x1="8.5" y1="12.5" x2="15.5" y2="12.5" stroke="#1a1a1a" stroke-width="0.6"/>
  <line x1="8.5" y1="13.5" x2="14" y2="13.5" stroke="#1a1a1a" stroke-width="0.5" opacity="0.6"/>
  <line x1="8.5" y1="14.5" x2="13" y2="14.5" stroke="#1a1a1a" stroke-width="0.5" opacity="0.6"/>
  <!-- Tube shine -->
  <rect x="8" y="11" width="1.5" height="7" fill="white" opacity="0.4" rx="0.5"/>
  <!-- Side seam -->
  <line x1="16.5" y1="10" x2="16.5" y2="19" stroke="#1a1a1a" stroke-width="0.5" opacity="0.3"/>
  <!-- Product dot -->
  <circle cx="14" cy="13" r="0.8" fill="currentColor" opacity="0.6" stroke="#1a1a1a" stroke-width="0.3"/>
</svg>