<svg width="24" height="24" viewBox="0 0 24 24" fill="none" xmlns="http://www.w3.org/2000/svg">
  <!-- Sachet packet -->
  <path d="M7 6 L17 6 L18 8 L18 19 Q18 20 17 20 L7 20 Q6 20 6 19 L6 8 Z" fill="currentColor" stroke="#1a1a1a" stroke-width="1.2"/>
  <!-- Tear notch at top -->
  <path d="M11.5 6 L12 5 L12.5 6" stroke="#1a1a1a" stroke-width="0.8" fill="none"/>
  <line x1="12" y1="5" x2="12" y2="6.5" stroke="#1a1a1a" stroke-width="0.6" stroke-dasharray="1,0.5"/>
  <!-- Sealed edges -->
  <line x1="6" y1="8" x2="18" y2="8" stroke="#1a1a1a" stroke-width="1.5"/>
  <path d="M6 8 Q7 7.5 8 8 Q9 8.5 10 8 Q11 7.5 12 8 Q13 8.5 14 8 Q15 7.5 16 8 Q17 8.5 18 8" fill="none" stroke="#1a1a1a" stroke-width="0.6"/>
  <!-- Powder particles visible through packet -->
  <circle cx="9" cy="12" r="0.6" fill="white" opacity="0.7"/>
  <circle cx="11" cy="13" r="0.5" fill="white" opacity="0.6"/>
  <circle cx="13" cy="11" r="0.7" fill="white" opacity="0.8"/>
  <circle cx="15" cy="14" r="0.5" fill="white" opacity="0.6"/>
  <circle cx="10" cy="15" r="0.6" fill="white" opacity="0.7"/>
  <circle cx="14" cy="16" r="0.5" fill="white" opacity="0.6"/>
  <circle cx="8" cy="14" r="0.5" fill="white" opacity="0.6"/>
  <circle cx="12" cy="17" r="0.6" fill="white" opacity="0.7"/>
  <circle cx="16" cy="12" r="0.5" fill="white" opacity="0.6"/>
  <!-- More fine powder -->
  <circle cx="9.5" cy="16.5" r="0.3" fill="white" opacity="0.5"/>
  <circle cx="14.5" cy="13.5" r="0.3" fill="white" opacity="0.5"/>
  <circle cx="11.5" cy="14.5" r="0.3" fill="white" opacity="0.5"/>
  <!-- Label -->
  <rect x="8" y="9.5" width="8" height="2.5" rx="0.3" fill="white" opacity="0.8" stroke="#1a1a1a" stroke-width="0.5"/>
  <line x1="8.5" y1="10.5" x2="15.5" y2="10.5" stroke="#1a1a1a" stroke-width="0.5"/>
  <line x1="8.5" y1="11.3" x2="13.5" y2="11.3" stroke="#1a1a1a" stroke-width="0.4" opacity="0.6"/>
  <!-- Packet shine -->
  <rect x="7" y="9" width="1" height="9" fill="white" opacity="0.3" rx="0.3"/>
  <!-- Bottom seal -->
  <line x1="7" y1="19.5" x2="17" y2="19.5" stroke="#1a1a1a" stroke-width="1"/>
</svg>