<svg width="24" height="24" viewBox="0 0 24 24" fill="none" xmlns="http://www.w3.org/2000/svg">
  <!-- Sachet packet -->
  <path d="M7 6 L17 6 L18 8 L18 19 Q18 20 17 20 L7 20 Q6 20 6 19 L6 8 Z" fill="#FEF3C7" stroke="#1F2937" stroke-width="1.5"/>
  <!-- Tear notch -->
  <path d="M11.5 6 L12 4.5 L12.5 6" stroke="#1F2937" stroke-width="1" fill="none"/>
  <line x1="12" y1="4.5" x2="12" y2="6.5" stroke="#DC2626" stroke-width="0.8" stroke-dasharray="1,0.8"/>
  <!-- Sealed edges -->
  <line x1="6" y1="8" x2="18" y2="8" stroke="#1F2937" stroke-width="1.8"/>
  <path d="M6 8 Q7 7.5 8 8 Q9 8.5 10 8 Q11 7.5 12 8 Q13 8.5 14 8 Q15 7.5 16 8 Q17 8.5 18 8" fill="none" stroke="#6B7280" stroke-width="0.8"/>
  <!-- Powder particles -->
  <circle cx="9" cy="12" r="0.8" fill="#FFFBEB"/>
  <circle cx="11" cy="13" r="0.6" fill="#FEF3C7"/>
  <circle cx="13" cy="11" r="0.9" fill="white"/>
  <circle cx="15" cy="14" r="0.6" fill="#FFFBEB"/>
  <circle cx="10" cy="15" r="0.8" fill="#FEF3C7"/>
  <circle cx="14" cy="16" r="0.6" fill="white"/>
  <circle cx="8" cy="14" r="0.6" fill="#FFFBEB"/>
  <circle cx="12" cy="17" r="0.8" fill="#FEF3C7"/>
  <circle cx="16" cy="12" r="0.6" fill="white"/>
  <!-- Label -->
  <rect x="8" y="9.5" width="8" height="2.5" rx="0.5" fill="white" opacity="0.95" stroke="#374151" stroke-width="0.8"/>
  <line x1="8.5" y1="10.5" x2="15.5" y2="10.5" stroke="#1F2937" stroke-width="0.7"/>
  <line x1="8.5" y1="11.3" x2="13.5" y2="11.3" stroke="#6B7280" stroke-width="0.5"/>
  <!-- Packet shine -->
  <rect x="7" y="9" width="1.2" height="9" fill="white" opacity="0.4" rx="0.4"/>
</svg>