<svg width="24" height="24" viewBox="0 0 24 24" fill="none" xmlns="http://www.w3.org/2000/svg">
  <!-- Spray bottle -->
  <rect x="9" y="10" width="6" height="10" rx="1.5" fill="currentColor" stroke="#1a1a1a" stroke-width="1.2"/>
  <!-- Spray nozzle/trigger -->
  <path d="M10 9 L10 7 Q10 6 11 6 L13 6 Q14 6 14 7 L14 9" fill="currentColor" stroke="#1a1a1a" stroke-width="1"/>
  <rect x="10.5" y="7" width="3" height="1" rx="0.3" fill="white" opacity="0.3"/>
  <!-- Trigger button -->
  <path d="M14 7.5 L15.5 8 L15.5 9 L14 9 Z" fill="currentColor" stroke="#1a1a1a" stroke-width="0.8"/>
  <circle cx="14.8" cy="8.5" r="0.3" fill="#1a1a1a" opacity="0.4"/>
  <!-- Spray particles -->
  <circle cx="16.5" cy="7" r="0.4" fill="currentColor" opacity="0.6"/>
  <circle cx="17.5" cy="6.5" r="0.3" fill="currentColor" opacity="0.5"/>
  <circle cx="18" cy="7.5" r="0.35" fill="currentColor" opacity="0.4"/>
  <circle cx="17" cy="8" r="0.3" fill="currentColor" opacity="0.5"/>
  <circle cx="18.5" cy="8.5" r="0.25" fill="currentColor" opacity="0.3"/>
  <circle cx="16.8" cy="5.8" r="0.3" fill="currentColor" opacity="0.4"/>
  <circle cx="19" cy="7" r="0.25" fill="currentColor" opacity="0.3"/>
  <!-- Liquid level inside -->
  <rect x="9.5" y="14" width="5" height="5" rx="1" fill="currentColor" opacity="0.5"/>
  <line x1="9.5" y1="14" x2="14.5" y2="14" stroke="#1a1a1a" stroke-width="0.6" opacity="0.3"/>
  <!-- Label -->
  <rect x="10" y="11.5" width="4" height="2" rx="0.3" fill="white" opacity="0.8" stroke="#1a1a1a" stroke-width="0.5"/>
  <line x1="10.5" y1="12.3" x2="13.5" y2="12.3" stroke="#1a1a1a" stroke-width="0.4"/>
  <line x1="10.5" y1="13" x2="13" y2="13" stroke="#1a1a1a" stroke-width="0.4" opacity="0.6"/>
  <!-- Bottle shine -->
  <rect x="9.5" y="11" width="1" height="7" fill="white" opacity="0.4" rx="0.3"/>
  <!-- Measurement lines -->
  <line x1="14" y1="15" x2="14.8" y2="15" stroke="#1a1a1a" stroke-width="0.4" opacity="0.5"/>
  <line x1="14" y1="17" x2="14.8" y2="17" stroke="#1a1a1a" stroke-width="0.4" opacity="0.5"/>
  <!-- Base -->
  <ellipse cx="12" cy="20" rx="3" ry="0.8" fill="#1a1a1a" opacity="0.2"/>
</svg>