<svg width="24" height="24" viewBox="0 0 24 24" fill="none" xmlns="http://www.w3.org/2000/svg">
  <!-- Spray bottle -->
  <rect x="9" y="10" width="6" height="10" rx="1.8" fill="#DBEAFE" stroke="#1F2937" stroke-width="1.5"/>
  <!-- Nozzle/trigger -->
  <path d="M10 9 L10 7 Q10 6 11 6 L13 6 Q14 6 14 7 L14 9" fill="#60A5FA" stroke="#1F2937" stroke-width="1.2"/>
  <rect x="10.5" y="7" width="3" height="1" rx="0.4" fill="white" opacity="0.4"/>
  <!-- Trigger button -->
  <path d="M14 7.5 L15.5 8 L15.5 9 L14 9 Z" fill="#3B82F6" stroke="#1F2937" stroke-width="1"/>
  <circle cx="14.8" cy="8.5" r="0.4" fill="#1F2937" opacity="0.6"/>
  <!-- Spray particles -->
  <circle cx="16.5" cy="7" r="0.5" fill="#DBEAFE" stroke="#60A5FA" stroke-width="0.5"/>
  <circle cx="17.5" cy="6.5" r="0.4" fill="#DBEAFE" stroke="#60A5FA" stroke-width="0.5"/>
  <circle cx="18" cy="7.5" r="0.45" fill="#DBEAFE" stroke="#60A5FA" stroke-width="0.5"/>
  <circle cx="17" cy="8" r="0.4" fill="#DBEAFE" stroke="#60A5FA" stroke-width="0.5"/>
  <circle cx="18.5" cy="8.5" r="0.35" fill="#DBEAFE" stroke="#60A5FA" stroke-width="0.5"/>
  <!-- Liquid level -->
  <rect x="9.5" y="14" width="5" height="5" rx="1" fill="#93C5FD" opacity="0.7"/>
  <line x1="9.5" y1="14" x2="14.5" y2="14" stroke="#3B82F6" stroke-width="1" opacity="0.5"/>
  <!-- Label -->
  <rect x="10" y="11.5" width="4" height="2" rx="0.4" fill="white" opacity="0.95" stroke="#374151" stroke-width="0.8"/>
  <line x1="10.5" y1="12.3" x2="13.5" y2="12.3" stroke="#1F2937" stroke-width="0.6"/>
  <line x1="10.5" y1="13" x2="13" y2="13" stroke="#6B7280" stroke-width="0.5"/>
  <!-- Bottle shine -->
  <rect x="9.5" y="11" width="1.5" height="7" fill="white" opacity="0.5" rx="0.5"/>
</svg>