<svg width="24" height="24" viewBox="0 0 24 24" fill="none" xmlns="http://www.w3.org/2000/svg">
  <!-- Suppository shape -->
  <path d="M10 5 L10 17 Q10 19 12 20 Q14 19 14 17 L14 5 Q14 3 12 3 Q10 3 10 5 Z" fill="#FEF3C7" stroke="#1F2937" stroke-width="1.5"/>
  <!-- Pointed end -->
  <path d="M10 17 Q10 19 12 20 Q14 19 14 17" fill="#FDE68A" opacity="0.8" stroke="#1F2937" stroke-width="1.2"/>
  <!-- Top flat end -->
  <ellipse cx="12" cy="5" rx="2" ry="1.4" fill="#FEF3C7" stroke="#1F2937" stroke-width="1.2"/>
  <ellipse cx="12" cy="4.8" rx="1.6" ry="1" fill="white" opacity="0.4"/>
  <!-- 3D shading -->
  <path d="M10.5 6 L10.5 16.5 Q10.5 18 11.5 19" stroke="white" stroke-width="1" fill="none" opacity="0.5"/>
  <path d="M13.5 6 L13.5 16.5 Q13.5 18 12.5 19" stroke="#D97706" stroke-width="1" fill="none" opacity="0.3"/>
  <!-- Center line -->
  <line x1="12" y1="5" x2="12" y2="18" stroke="#D97706" stroke-width="0.8" opacity="0.3" stroke-dasharray="1.5,1.5"/>
  <!-- Wrapper marks -->
  <path d="M9.5 8 L9 8.5 L9 9.5 L9.5 10" stroke="#C0C0C0" stroke-width="0.8" fill="none" opacity="0.7"/>
  <path d="M14.5 8 L15 8.5 L15 9.5 L14.5 10" stroke="#C0C0C0" stroke-width="0.8" fill="none" opacity="0.7"/>
  <!-- Surface highlights -->
  <ellipse cx="11" cy="10" rx="1" ry="2.5" fill="white" opacity="0.3"/>
  <!-- Packaging tear strip -->
  <rect x="9" y="6" width="0.6" height="2.5" rx="0.3" fill="#EF4444" opacity="0.8"/>
</svg>