<svg width="24" height="24" viewBox="0 0 24 24" fill="none" xmlns="http://www.w3.org/2000/svg">
  <!-- Bottle shadow -->
  <path d="M10 4 H14 L15.5 7 H8.5 L10 4 Z" fill="#1a1a1a" opacity="0.1"/>
  <rect x="8" y="7" width="8" height="13" rx="1.5" fill="#1a1a1a" opacity="0.1"/>
  <!-- Bottle cap -->
  <rect x="10" y="3" width="4" height="3" rx="0.5" fill="currentColor" stroke="#1a1a1a" stroke-width="1"/>
  <rect x="9.5" y="5.5" width="5" height="1" fill="#1a1a1a" opacity="0.2"/>
  <!-- Bottle neck -->
  <path d="M10 6 L9 7.5 H15 L14 6 Z" fill="currentColor" stroke="#1a1a1a" stroke-width="1"/>
  <!-- Main bottle body -->
  <rect x="8" y="7.5" width="8" height="12" rx="1.5" fill="currentColor" stroke="#1a1a1a" stroke-width="1.2"/>
  <!-- Liquid level -->
  <rect x="8.5" y="12" width="7" height="7" rx="1" fill="currentColor" opacity="0.6"/>
  <line x1="8.5" y1="12" x2="15.5" y2="12" stroke="#1a1a1a" stroke-width="1" opacity="0.3"/>
  <!-- Label area -->
  <rect x="9" y="9" width="6" height="3" rx="0.5" fill="white" opacity="0.7" stroke="#1a1a1a" stroke-width="0.5"/>
  <line x1="9.5" y1="10" x2="14.5" y2="10" stroke="#1a1a1a" stroke-width="0.5" opacity="0.5"/>
  <line x1="9.5" y1="11" x2="13" y2="11" stroke="#1a1a1a" stroke-width="0.5" opacity="0.5"/>
  <!-- Bottle shine -->
  <rect x="9" y="8" width="1.5" height="10" fill="white" opacity="0.3" rx="0.5"/>
  <!-- Measurement marks -->
  <line x1="14.5" y1="14" x2="15.5" y2="14" stroke="#1a1a1a" stroke-width="0.5" opacity="0.4"/>
  <line x1="14.5" y1="16" x2="15.5" y2="16" stroke="#1a1a1a" stroke-width="0.5" opacity="0.4"/>
  <line x1="14.5" y1="18" x2="15.5" y2="18" stroke="#1a1a1a" stroke-width="0.5" opacity="0.4"/>
</svg>